<?xml version="1.0" encoding="UTF-8"?><svg id="Layer_1" xmlns="http://www.w3.org/2000/svg" xmlns:xlink="http://www.w3.org/1999/xlink" viewBox="0 0 832 301.33"><defs><style>.cls-1{fill:url(#linear-gradient);}.cls-2{fill:#fff;}.cls-3{fill:#5558e5;}.cls-4{fill:url(#linear-gradient-3);}.cls-5{fill:url(#linear-gradient-4);}.cls-6{fill:url(#linear-gradient-2);}.cls-7{fill:url(#linear-gradient-5);}</style><linearGradient id="linear-gradient" x1="245.87" y1="173.47" x2="193.72" y2="80.32" gradientUnits="userSpaceOnUse"><stop offset=".03" stop-color="#5558e5"/><stop offset=".14" stop-color="#6b6de3"/><stop offset=".26" stop-color="#7c7ee2"/><stop offset=".38" stop-color="#8687e2"/><stop offset=".54" stop-color="#8a8be2"/><stop offset=".69" stop-color="#8c8de1"/><stop offset=".79" stop-color="#9596e1"/><stop offset=".87" stop-color="#a3a4e0"/><stop offset=".94" stop-color="#b8b9e0"/><stop offset=".95" stop-color="#babbe0"/></linearGradient><linearGradient id="linear-gradient-2" x1="-11829.85" y1="-2621.66" x2="-11882" y2="-2714.82" gradientTransform="translate(-11825.06 -2543.19) rotate(-180)" xlink:href="#linear-gradient"/><linearGradient id="linear-gradient-3" x1="25.43" y1="230.44" x2="226.81" y2="20.01" gradientUnits="userSpaceOnUse"><stop offset="0" stop-color="#babbe0"/><stop offset=".03" stop-color="#b1b2e0"/><stop offset=".09" stop-color="#9fa0e1"/><stop offset=".17" stop-color="#9394e1"/><stop offset=".28" stop-color="#8c8de1"/><stop offset=".52" stop-color="#8a8be2"/><stop offset=".69" stop-color="#8c8de1"/><stop offset=".79" stop-color="#9596e1"/><stop offset=".88" stop-color="#a3a4e0"/><stop offset=".96" stop-color="#b8b9e0"/><stop offset=".97" stop-color="#babbe0"/></linearGradient><linearGradient id="linear-gradient-4" x1="18.05" y1="31.6" x2="151.28" y2="78.96" gradientUnits="userSpaceOnUse"><stop offset=".06" stop-color="#babbe0"/><stop offset=".19" stop-color="#a3a4e0"/><stop offset=".35" stop-color="#9091e1"/><stop offset=".46" stop-color="#8a8be2"/><stop offset=".57" stop-color="#8182e2"/><stop offset=".74" stop-color="#6a6ce3"/><stop offset=".87" stop-color="#5558e5"/></linearGradient><linearGradient id="linear-gradient-5" x1="-10991.28" y1="-1579.53" x2="-10858.04" y2="-1532.18" gradientTransform="translate(-10758.59 -1359.19) rotate(-180)" xlink:href="#linear-gradient-4"/></defs><g><path class="cls-3" d="M329.08,47.56c-6.06,0-10.8-1.76-14.21-5.28-3.42-3.51-5.13-7.91-5.13-13.19,0-5.08,1.76-9.42,5.27-13.04,3.52-3.61,8.2-5.42,14.07-5.42,5.66,0,10.26,1.76,13.77,5.27,3.51,3.52,5.27,7.91,5.27,13.19,0,5.28-1.76,9.67-5.27,13.19-3.52,3.52-8.11,5.28-13.77,5.28Zm-17.29,168.89V81.76c0-1.25,1.01-2.26,2.26-2.26h30.07c1.25,0,2.26,1.01,2.26,2.26V216.45c0,1.25-1.01,2.26-2.26,2.26h-30.07c-1.25,0-2.26-1.01-2.26-2.26Z"/><path class="cls-3" d="M528.93,47.56c-6.06,0-10.8-1.76-14.21-5.28-3.42-3.51-5.13-7.91-5.13-13.19,0-5.08,1.76-9.42,5.27-13.04,3.52-3.61,8.2-5.42,14.07-5.42s10.26,1.76,13.77,5.27c3.51,3.52,5.27,7.91,5.27,13.19,0,5.28-1.76,9.67-5.27,13.19-3.52,3.52-8.11,5.28-13.77,5.28Zm-17.29,168.87V81.78c0-1.26,1.02-2.28,2.28-2.28h30.03c1.26,0,2.28,1.02,2.28,2.28V216.43c0,1.26-1.02,2.28-2.28,2.28h-30.03c-1.26,0-2.28-1.02-2.28-2.28Z"/><path class="cls-3" d="M669.57,36.4c.76,1.83-1.03,3.67-2.89,2.98-1.83-.68-3.64-1.27-5.44-1.79-3.42-.98-7.09-1.47-10.99-1.47-7.62,0-13.24,2.25-16.85,6.74-3.62,4.5-5.42,12.02-5.42,22.57v11.79c0,1.26,1.02,2.28,2.28,2.28h33.23c.92,0,1.75,.55,2.1,1.4l8.63,20.65c.63,1.5-.48,3.15-2.1,3.15h-41.85c-1.26,0-2.28,1.02-2.28,2.28v109.45c0,1.26-1.02,2.28-2.28,2.28h-29.74c-1.26,0-2.28-1.02-2.28-2.28V106.98c0-1.26-1.02-2.28-2.28-2.28h-16.25c-1.26,0-2.28-1.02-2.28-2.28v-20.65c0-1.26,1.02-2.28,2.28-2.28h16.25c1.26,0,2.28-1.02,2.28-2.28v-20.29c0-15.43,4.3-27.25,12.9-35.46,8.59-8.2,20.22-12.31,34.87-12.31,5.59,0,11.11,.62,16.56,1.87,.73,.17,1.33,.68,1.61,1.37l9.94,23.99Z"/><path class="cls-3" d="M687.03,79.5h32.51c.95,0,1.81,.6,2.14,1.49l25.53,69.43,9.67,33.41h.88s9.38-33.7,9.38-33.7l22.93-69.07c.31-.93,1.18-1.56,2.16-1.56h30.6c1.57,0,2.67,1.55,2.15,3.04l-50.8,143.49c-5.67,16.21-13.29,30.18-22.86,41.91-9.17,11.23-21.58,19.68-37.21,25.36-1.14,.42-2.43-.16-2.9-1.28l-10.06-24.25c-.49-1.18,.1-2.51,1.28-2.99,9.05-3.7,14.68-7.89,21.48-14.42,7.33-7.03,12.65-16.02,15.97-26.96l1.47-4.98-56.42-135.76c-.62-1.5,.48-3.15,2.1-3.15Z"/><path class="cls-3" d="M483.51,195.77v20.66c0,1.25-1.02,2.28-2.28,2.28h-104.48c-.17,0-.34-.03-.48-.06,0,0-.2-.06-.51-.17-.94-.4-3.04-1.57-4.44-4.61-1.45-3.19-2.13-9.28,3.36-17.01,.06-.14,.14-.28,.26-.43l64.87-88.09c1.11-1.51,.03-3.64-1.82-3.64h-56.82c-1.25,0-2.28-1-2.28-2.28v-20.63c0-1.28,1.02-2.28,2.28-2.28h98.59c.17,0,.34,.03,.48,.06v-.03s3.33,.74,4.98,4.64c1.51,3.61,1.91,8.91-3.39,16.27v.03c-.06,.14-.14,.28-.23,.43l-64.64,88.97c-1.08,1.51,0,3.61,1.85,3.61h62.42c1.25,0,2.28,1.02,2.28,2.28Z"/></g><g><path class="cls-1" d="M241.46,40.66v116.63c0,5.14-1.68,9.9-4.51,13.74-4.23,5.74-11.03,9.46-18.68,9.46h-38.44V115.05l52.08-52.08,.26-.26,.53-.53,.26-.26,.27-.27h-.01c5.12-5.51,8.25-12.89,8.25-21Z"/><path class="cls-6" d="M9.2,211.29V94.66c0-5.14,1.68-9.9,4.51-13.74,4.23-5.74,11.03-9.46,18.68-9.46h38.44v65.43l-52.08,52.08-.26,.26-.53,.53-.26,.26-.27,.27h.01c-5.12,5.51-8.25,12.89-8.25,21Z"/><g><path class="cls-2" d="M233.22,61.65l-.27,.27c.09-.09,.17-.18,.26-.28h.01Z"/><path d="M233.21,61.64c-.09,.09-.17,.18-.26,.28l.27-.27h-.01Z"/></g><path class="cls-4" d="M211.37,9.85c-.24,0-.48-.01-.72-.01h-68.39c1.3,0,2.57,.11,3.81,.33,10.98,1.82,19.37,11.35,19.37,22.85,0,5.14-1.68,9.9-4.5,13.74-.16,.21-.29,.43-.48,.62-1.68,1.68-2.4,2.7-3.82,3.82l-20.28,20.28-65.54,65.55v.17h-.17l-50.78,50.78-.03,.03c-6.52,5.65-10.65,13.99-10.65,23.3,0,17.02,13.8,30.82,30.82,30.82H108.54c-12.81,0-23.19-10.38-23.19-23.19,0-5.49,1.91-10.54,5.11-14.51,.51-.63,2.83-2.96,3.48-3.48h0s20.45-20.45,20.45-20.45l65.43-65.43,52.08-52.08,.26-.26,.53-.53,.26-.26c.09-.09,.17-.18,.26-.28,5.12-5.5,8.25-12.88,8.25-20.99,0-16.77-13.41-30.42-30.09-30.8ZM40.01,211.29"/><polygon points="70.83 137.02 70.66 137.19 70.83 137.19 70.83 137.02 70.83 137.02"/><polygon points="70.83 137.02 70.66 137.19 70.83 137.19 70.83 137.02 70.83 137.02"/><path d="M233.21,61.64c-.09,.09-.17,.18-.26,.28l.27-.27h-.01Z"/><path class="cls-5" d="M165.45,33.02c0,5.14-1.68,9.9-4.5,13.74-.16,.21-.31,.42-.48,.62l-3.56,3.76-20.54,20.33H30.27c-.55,.02-1.12,.12-1.67,.22-3.66,.6-7.04,2.05-9.9,4.18-5.76,4.21-9.47,11.02-9.47,18.67,0,.42,.01,.83,.03,1.24h-.06V40.66c0-17.02,13.8-30.82,30.82-30.82h102.25c1.3,0,2.57,.11,3.81,.33,10.98,1.82,19.37,11.35,19.37,22.85Z"/><path class="cls-7" d="M85.29,218.93c0-5.14,1.68-9.9,4.5-13.74,.16-.21,.31-.42,.48-.62l3.56-3.76,20.54-20.33h106.1c.55-.02,1.12-.12,1.67-.22,3.66-.6,7.04-2.05,9.9-4.18,5.76-4.21,9.47-11.02,9.47-18.67,0-.42-.01-.83-.03-1.24h.06v55.13c0,17.02-13.8,30.82-30.82,30.82H108.47c-1.3,0-2.57-.11-3.81-.33-10.98-1.82-19.37-11.35-19.37-22.85Z"/><polygon points="70.83 137.02 70.66 137.19 70.83 137.19 70.83 137.02 70.83 137.02"/></g></svg>